<svg width="300" height="300" viewBox="0 0 300 300" fill="none" xmlns="http://www.w3.org/2000/svg">
<rect width="300" height="300" rx="150" fill="#E7D9EA"/>
<path d="M75.992 189.512C76.28 189.896 76.52 190.376 76.712 190.952C76.904 191.48 77 191.984 77 192.464C77 193.76 76.496 194.84 75.488 195.704C74.528 196.568 73.4 197 72.104 197C71.48 197 70.88 196.856 70.304 196.568C69.728 196.28 69.248 195.872 68.864 195.344L53.24 174.752L46.4 181.304V192.608C46.4 193.904 45.968 194.96 45.104 195.776C44.288 196.592 43.208 197 41.864 197C40.568 197 39.488 196.592 38.624 195.776C37.808 194.912 37.4 193.856 37.4 192.608V150.992C37.4 149.744 37.832 148.712 38.696 147.896C39.56 147.032 40.664 146.6 42.008 146.6C43.304 146.6 44.36 147.008 45.176 147.824C45.992 148.64 46.4 149.696 46.4 150.992V170.576L69.44 147.896C70.544 146.792 71.72 146.24 72.968 146.24C74.072 146.24 75.008 146.696 75.776 147.608C76.544 148.52 76.928 149.48 76.928 150.488C76.928 151.496 76.496 152.432 75.632 153.296L59.936 168.272L75.992 189.512ZM111.6 158.48C112.848 158.48 113.88 158.912 114.696 159.776C115.512 160.592 115.92 161.624 115.92 162.872V181.16C115.92 186.344 114.48 190.4 111.6 193.328C108.768 196.256 104.712 197.72 99.4319 197.72C94.1519 197.72 90.0959 196.256 87.2639 193.328C84.4319 190.4 83.0159 186.344 83.0159 181.16V162.872C83.0159 161.624 83.4239 160.592 84.2399 159.776C85.0559 158.912 86.0879 158.48 87.3359 158.48C88.5839 158.48 89.6159 158.912 90.4319 159.776C91.2479 160.592 91.6559 161.624 91.6559 162.872V181.16C91.6559 184.088 92.3039 186.272 93.5999 187.712C94.8959 189.104 96.8399 189.8 99.4319 189.8C102.072 189.8 104.04 189.104 105.336 187.712C106.632 186.272 107.28 184.088 107.28 181.16V162.872C107.28 161.624 107.688 160.592 108.504 159.776C109.32 158.912 110.352 158.48 111.6 158.48ZM133.41 192.608C133.41 193.856 133.002 194.912 132.186 195.776C131.37 196.592 130.338 197 129.09 197C127.842 197 126.81 196.592 125.994 195.776C125.178 194.912 124.77 193.856 124.77 192.608V162.872C124.77 161.624 125.178 160.592 125.994 159.776C126.81 158.912 127.842 158.48 129.09 158.48C130.338 158.48 131.37 158.912 132.186 159.776C133.002 160.592 133.41 161.624 133.41 162.872V192.608ZM129.018 153.8C127.386 153.8 126.234 153.536 125.562 153.008C124.89 152.48 124.554 151.544 124.554 150.2V148.832C124.554 147.488 124.914 146.552 125.634 146.024C126.354 145.496 127.506 145.232 129.09 145.232C130.77 145.232 131.946 145.496 132.618 146.024C133.29 146.552 133.626 147.488 133.626 148.832V150.2C133.626 151.592 133.266 152.552 132.546 153.08C131.874 153.56 130.698 153.8 129.018 153.8ZM140.057 191.024C139.625 190.448 139.409 189.728 139.409 188.864C139.409 187.616 140.033 186.56 141.281 185.696C141.953 185.264 142.649 185.048 143.369 185.048C144.377 185.048 145.337 185.504 146.249 186.416C147.689 187.904 149.177 189.008 150.713 189.728C152.297 190.448 154.193 190.808 156.401 190.808C160.145 190.664 162.017 189.248 162.017 186.56C162.017 185.168 161.369 184.112 160.073 183.392C158.825 182.672 156.857 181.952 154.169 181.232C151.385 180.464 149.105 179.696 147.329 178.928C145.601 178.16 144.089 177.008 142.793 175.472C141.545 173.888 140.921 171.776 140.921 169.136C140.921 166.832 141.569 164.84 142.865 163.16C144.209 161.432 145.937 160.112 148.049 159.2C150.209 158.24 152.489 157.76 154.889 157.76C157.337 157.76 159.785 158.216 162.233 159.128C164.681 160.04 166.601 161.384 167.993 163.16C168.617 163.928 168.929 164.792 168.929 165.752C168.929 166.856 168.473 167.768 167.561 168.488C166.889 169.016 166.121 169.28 165.257 169.28C164.201 169.28 163.337 168.944 162.665 168.272C161.801 167.216 160.673 166.376 159.281 165.752C157.937 165.128 156.401 164.816 154.673 164.816C151.025 164.816 149.201 166.136 149.201 168.776C149.201 169.832 149.537 170.696 150.209 171.368C150.881 171.992 151.721 172.496 152.729 172.88C153.785 173.216 155.249 173.648 157.121 174.176C159.713 174.896 161.873 175.64 163.601 176.408C165.329 177.176 166.793 178.352 167.993 179.936C169.193 181.52 169.793 183.608 169.793 186.2C169.793 188.552 169.097 190.616 167.705 192.392C166.313 194.12 164.513 195.44 162.305 196.352C160.145 197.264 157.913 197.72 155.609 197.72C152.441 197.72 149.489 197.192 146.753 196.136C144.017 195.08 141.785 193.376 140.057 191.024Z" fill="#202060"/>
<path d="M216.336 189.512C216.624 189.896 216.864 190.376 217.056 190.952C217.248 191.48 217.344 191.984 217.344 192.464C217.344 193.76 216.84 194.84 215.832 195.704C214.872 196.568 213.744 197 212.448 197C211.824 197 211.224 196.856 210.648 196.568C210.072 196.28 209.592 195.872 209.208 195.344L193.584 174.752L186.744 181.304V192.608C186.744 193.904 186.312 194.96 185.448 195.776C184.632 196.592 183.552 197 182.208 197C180.912 197 179.832 196.592 178.968 195.776C178.152 194.912 177.744 193.856 177.744 192.608V150.992C177.744 149.744 178.176 148.712 179.04 147.896C179.904 147.032 181.008 146.6 182.352 146.6C183.648 146.6 184.704 147.008 185.52 147.824C186.336 148.64 186.744 149.696 186.744 150.992V170.576L209.784 147.896C210.888 146.792 212.064 146.24 213.312 146.24C214.416 146.24 215.352 146.696 216.12 147.608C216.888 148.52 217.272 149.48 217.272 150.488C217.272 151.496 216.84 152.432 215.976 153.296L200.28 168.272L216.336 189.512ZM251.944 158.48C253.192 158.48 254.224 158.912 255.04 159.776C255.856 160.592 256.264 161.624 256.264 162.872V181.16C256.264 186.344 254.824 190.4 251.944 193.328C249.112 196.256 245.056 197.72 239.776 197.72C234.496 197.72 230.44 196.256 227.608 193.328C224.776 190.4 223.36 186.344 223.36 181.16V162.872C223.36 161.624 223.768 160.592 224.584 159.776C225.4 158.912 226.432 158.48 227.68 158.48C228.928 158.48 229.96 158.912 230.776 159.776C231.592 160.592 232 161.624 232 162.872V181.16C232 184.088 232.648 186.272 233.944 187.712C235.24 189.104 237.184 189.8 239.776 189.8C242.416 189.8 244.384 189.104 245.68 187.712C246.976 186.272 247.624 184.088 247.624 181.16V162.872C247.624 161.624 248.032 160.592 248.848 159.776C249.664 158.912 250.696 158.48 251.944 158.48Z" fill="#6A097D"/>
<path d="M207.708 140.597C207.224 140.597 206.736 140.503 206.269 140.31C204.862 139.727 203.953 138.367 203.953 136.844V132.859C203.953 131.438 202.797 130.281 201.375 130.281C196.205 130.281 192 126.076 192 120.906V92.7812C192 87.6117 196.205 83.4062 201.375 83.4062H242.625C247.795 83.4062 252 87.6117 252 92.7812V109.188C252 110.482 250.951 111.531 249.656 111.531C248.362 111.531 247.312 110.482 247.312 109.188V92.7812C247.312 90.1967 245.21 88.0938 242.625 88.0938H201.375C198.79 88.0938 196.688 90.1967 196.688 92.7812V120.906C196.688 123.491 198.79 125.594 201.375 125.594C205.381 125.594 208.641 128.853 208.641 132.859V134.584L213.744 129.48C216.25 126.974 219.583 125.594 223.127 125.594H242.625C245.21 125.594 247.312 123.491 247.312 120.906C247.312 119.612 248.362 118.562 249.656 118.562C250.951 118.562 252 119.612 252 120.906C252 126.075 247.795 130.281 242.625 130.281H223.127C220.835 130.281 218.68 131.174 217.059 132.794L210.357 139.496C209.638 140.216 208.682 140.597 207.708 140.597ZM224.344 118.68C224.344 117.385 223.295 116.336 222 116.336C220.705 116.336 219.656 117.385 219.656 118.68C219.656 119.974 220.705 121.023 222 121.023C223.295 121.023 224.344 119.974 224.344 118.68ZM224.344 110.477V108.838C224.344 108.705 224.42 108.579 224.521 108.545C227.859 107.433 230.096 104.197 229.963 100.676C229.806 96.5409 226.444 93.1786 222.308 93.0216C220.121 92.9383 218.048 93.7274 216.474 95.2431C214.899 96.7597 214.031 98.7986 214.031 100.984C214.031 102.279 215.08 103.328 216.375 103.328C217.67 103.328 218.719 102.279 218.719 100.984C218.719 100.084 219.076 99.2444 219.725 98.62C220.373 97.9961 221.227 97.6711 222.13 97.7054C223.831 97.77 225.214 99.1533 225.279 100.854C225.334 102.306 224.413 103.64 223.039 104.099C221.016 104.773 219.656 106.677 219.656 108.838V110.477C219.656 111.771 220.705 112.82 222 112.82C223.295 112.82 224.344 111.771 224.344 110.477Z" fill="#6A097D"/>
</svg>
