<svg width="512" height="329" viewBox="0 0 512 329" fill="none" xmlns="http://www.w3.org/2000/svg">
<path d="M108.65 245.4C109.25 246.2 109.75 247.2 110.15 248.4C110.55 249.5 110.75 250.55 110.75 251.55C110.75 254.25 109.7 256.5 107.6 258.3C105.6 260.1 103.25 261 100.55 261C99.25 261 98 260.7 96.8 260.1C95.6 259.5 94.6 258.65 93.8 257.55L61.25 214.65L47 228.3V251.85C47 254.55 46.1 256.75 44.3 258.45C42.6 260.15 40.35 261 37.55 261C34.85 261 32.6 260.15 30.8 258.45C29.1 256.65 28.25 254.45 28.25 251.85V165.15C28.25 162.55 29.15 160.4 30.95 158.7C32.75 156.9 35.05 156 37.85 156C40.55 156 42.75 156.85 44.45 158.55C46.15 160.25 47 162.45 47 165.15V205.95L95 158.7C97.3 156.4 99.75 155.25 102.35 155.25C104.65 155.25 106.6 156.2 108.2 158.1C109.8 160 110.6 162 110.6 164.1C110.6 166.2 109.7 168.15 107.9 169.95L75.2 201.15L108.65 245.4ZM182.833 180.75C185.433 180.75 187.583 181.65 189.283 183.45C190.983 185.15 191.833 187.3 191.833 189.9V228C191.833 238.8 188.833 247.25 182.833 253.35C176.933 259.45 168.483 262.5 157.483 262.5C146.483 262.5 138.033 259.45 132.133 253.35C126.233 247.25 123.283 238.8 123.283 228V189.9C123.283 187.3 124.133 185.15 125.833 183.45C127.533 181.65 129.683 180.75 132.283 180.75C134.883 180.75 137.033 181.65 138.733 183.45C140.433 185.15 141.283 187.3 141.283 189.9V228C141.283 234.1 142.633 238.65 145.333 241.65C148.033 244.55 152.083 246 157.483 246C162.983 246 167.083 244.55 169.783 241.65C172.483 238.65 173.833 234.1 173.833 228V189.9C173.833 187.3 174.683 185.15 176.383 183.45C178.083 181.65 180.233 180.75 182.833 180.75ZM228.27 251.85C228.27 254.45 227.42 256.65 225.72 258.45C224.02 260.15 221.87 261 219.27 261C216.67 261 214.52 260.15 212.82 258.45C211.12 256.65 210.27 254.45 210.27 251.85V189.9C210.27 187.3 211.12 185.15 212.82 183.45C214.52 181.65 216.67 180.75 219.27 180.75C221.87 180.75 224.02 181.65 225.72 183.45C227.42 185.15 228.27 187.3 228.27 189.9V251.85ZM219.12 171C215.72 171 213.32 170.45 211.92 169.35C210.52 168.25 209.82 166.3 209.82 163.5V160.65C209.82 157.85 210.57 155.9 212.07 154.8C213.57 153.7 215.97 153.15 219.27 153.15C222.77 153.15 225.22 153.7 226.62 154.8C228.02 155.9 228.72 157.85 228.72 160.65V163.5C228.72 166.4 227.97 168.4 226.47 169.5C225.07 170.5 222.62 171 219.12 171ZM242.12 248.55C241.22 247.35 240.77 245.85 240.77 244.05C240.77 241.45 242.07 239.25 244.67 237.45C246.07 236.55 247.52 236.1 249.02 236.1C251.12 236.1 253.12 237.05 255.02 238.95C258.02 242.05 261.12 244.35 264.32 245.85C267.62 247.35 271.57 248.1 276.17 248.1C283.97 247.8 287.87 244.85 287.87 239.25C287.87 236.35 286.52 234.15 283.82 232.65C281.22 231.15 277.12 229.65 271.52 228.15C265.72 226.55 260.97 224.95 257.27 223.35C253.67 221.75 250.52 219.35 247.82 216.15C245.22 212.85 243.92 208.45 243.92 202.95C243.92 198.15 245.27 194 247.97 190.5C250.77 186.9 254.37 184.15 258.77 182.25C263.27 180.25 268.02 179.25 273.02 179.25C278.12 179.25 283.22 180.2 288.32 182.1C293.42 184 297.42 186.8 300.32 190.5C301.62 192.1 302.27 193.9 302.27 195.9C302.27 198.2 301.32 200.1 299.42 201.6C298.02 202.7 296.42 203.25 294.62 203.25C292.42 203.25 290.62 202.55 289.22 201.15C287.42 198.95 285.07 197.2 282.17 195.9C279.37 194.6 276.17 193.95 272.57 193.95C264.97 193.95 261.17 196.7 261.17 202.2C261.17 204.4 261.87 206.2 263.27 207.6C264.67 208.9 266.42 209.95 268.52 210.75C270.72 211.45 273.77 212.35 277.67 213.45C283.07 214.95 287.57 216.5 291.17 218.1C294.77 219.7 297.82 222.15 300.32 225.45C302.82 228.75 304.07 233.1 304.07 238.5C304.07 243.4 302.62 247.7 299.72 251.4C296.82 255 293.07 257.75 288.47 259.65C283.97 261.55 279.32 262.5 274.52 262.5C267.92 262.5 261.77 261.4 256.07 259.2C250.37 257 245.72 253.45 242.12 248.55Z" fill="white"/>
<path d="M401.033 245.4C401.633 246.2 402.133 247.2 402.533 248.4C402.933 249.5 403.133 250.55 403.133 251.55C403.133 254.25 402.083 256.5 399.983 258.3C397.983 260.1 395.633 261 392.933 261C391.633 261 390.383 260.7 389.183 260.1C387.983 259.5 386.983 258.65 386.183 257.55L353.633 214.65L339.383 228.3V251.85C339.383 254.55 338.483 256.75 336.683 258.45C334.983 260.15 332.733 261 329.933 261C327.233 261 324.983 260.15 323.183 258.45C321.483 256.65 320.633 254.45 320.633 251.85V165.15C320.633 162.55 321.533 160.4 323.333 158.7C325.133 156.9 327.433 156 330.233 156C332.933 156 335.133 156.85 336.833 158.55C338.533 160.25 339.383 162.45 339.383 165.15V205.95L387.383 158.7C389.683 156.4 392.133 155.25 394.733 155.25C397.033 155.25 398.983 156.2 400.583 158.1C402.183 160 402.983 162 402.983 164.1C402.983 166.2 402.083 168.15 400.283 169.95L367.583 201.15L401.033 245.4ZM475.216 180.75C477.816 180.75 479.966 181.65 481.666 183.45C483.366 185.15 484.216 187.3 484.216 189.9V228C484.216 238.8 481.216 247.25 475.216 253.35C469.316 259.45 460.866 262.5 449.866 262.5C438.866 262.5 430.416 259.45 424.516 253.35C418.616 247.25 415.666 238.8 415.666 228V189.9C415.666 187.3 416.516 185.15 418.216 183.45C419.916 181.65 422.066 180.75 424.666 180.75C427.266 180.75 429.416 181.65 431.116 183.45C432.816 185.15 433.666 187.3 433.666 189.9V228C433.666 234.1 435.016 238.65 437.716 241.65C440.416 244.55 444.466 246 449.866 246C455.366 246 459.466 244.55 462.166 241.65C464.866 238.65 466.216 234.1 466.216 228V189.9C466.216 187.3 467.066 185.15 468.766 183.45C470.466 181.65 472.616 180.75 475.216 180.75Z" fill="#6A097D"/>
<path d="M403.94 149.148C402.956 149.148 401.963 148.956 401.014 148.564C398.153 147.379 396.305 144.612 396.305 141.517V133.414C396.305 130.523 393.954 128.172 391.062 128.172C380.551 128.172 372 119.621 372 109.109V51.9219C372 41.4105 380.551 32.8594 391.062 32.8594H474.938C485.449 32.8594 494 41.4105 494 51.9219V85.2812C494 87.9135 491.867 90.0469 489.234 90.0469C486.602 90.0469 484.469 87.9135 484.469 85.2812V51.9219C484.469 46.6667 480.193 42.3906 474.938 42.3906H391.062C385.807 42.3906 381.531 46.6667 381.531 51.9219V109.109C381.531 114.365 385.807 118.641 391.062 118.641C399.209 118.641 405.836 125.268 405.836 133.414V136.92L416.213 126.543C421.309 121.447 428.085 118.641 435.292 118.641H474.938C480.193 118.641 484.469 114.365 484.469 109.109C484.469 106.477 486.602 104.344 489.234 104.344C491.867 104.344 494 106.477 494 109.109C494 119.62 485.449 128.172 474.938 128.172H435.292C430.631 128.172 426.249 129.987 422.953 133.282L409.325 146.91C407.863 148.373 405.921 149.148 403.94 149.148ZM437.766 104.582C437.766 101.95 435.632 99.8164 433 99.8164C430.368 99.8164 428.234 101.95 428.234 104.582C428.234 107.214 430.368 109.348 433 109.348C435.632 109.348 437.766 107.214 437.766 104.582ZM437.766 87.9023V84.5701C437.766 84.3002 437.92 84.0442 438.126 83.9754C444.913 81.7135 449.463 75.1338 449.191 67.9751C448.872 59.5664 442.035 52.7298 433.626 52.4105C429.179 52.2411 424.965 53.8458 421.764 56.9276C418.561 60.0113 416.797 64.1571 416.797 68.6016C416.797 71.2338 418.93 73.3672 421.562 73.3672C424.195 73.3672 426.328 71.2338 426.328 68.6016C426.328 66.7716 427.055 65.0636 428.374 63.7941C429.691 62.5254 431.429 61.8645 433.264 61.9343C436.723 62.0656 439.535 64.8784 439.667 68.3372C439.779 71.2897 437.906 74.002 435.112 74.9337C430.999 76.3047 428.234 80.1768 428.234 84.5701V87.9023C428.234 90.5346 430.368 92.668 433 92.668C435.632 92.668 437.766 90.5346 437.766 87.9023Z" fill="#6A097D"/>
</svg>
